<svg xmlns="http://www.w3.org/2000/svg" viewBox="0 0 900 240" role="img" aria-labelledby="title desc">
  <title id="title">Entergy wordmark</title>
  <desc id="desc">Entergy wordmark for the Home Assistant integration README.</desc>
  <defs>
    <linearGradient id="entergy-gradient" x1="0" y1="18" x2="190" y2="222" gradientUnits="userSpaceOnUse">
      <stop offset="0" stop-color="#ff1458"/>
      <stop offset="0.48" stop-color="#f0187f"/>
      <stop offset="1" stop-color="#6628ff"/>
    </linearGradient>
  </defs>
  <rect width="900" height="240" fill="#ffffff"/>
  <g transform="translate(18 18)">
    <path fill="url(#entergy-gradient)" d="M14.8 16.6A110.3 110.3 0 0 1 62.2 6c60.4 0 109.5 49.1 109.5 109.5 0 30.3-12.4 57.8-32.4 77.6l-19.8-33.3a64.8 64.8 0 0 0 13.9-28.3H6.8V97.8h126.4A72 72 0 0 0 24 50.3L14.8 16.6Z"/>
    <path fill="url(#entergy-gradient)" d="M6.8 88.6a56 56 0 0 1 110.8 0H6.8Z"/>
  </g>
  <text x="220" y="157" fill="#231f20" font-family="Arial, Helvetica, sans-serif" font-size="134" font-weight="700" letter-spacing="0">entergy</text>
</svg>
